<svg viewBox="0 0 512 512" xmlns="http://www.w3.org/2000/svg">
  <!-- F1 UNO Élite app icon — "the fan" (concept B4, red background).
       Full-bleed background (maskable-safe: the card fan stays inside
       the central safe-zone circle). Source of truth for the exported
       icon-512.png / icon-192.png / favicon.ico. -->
  <defs>
    <linearGradient id="b4bg" x1="0" y1="0" x2="1" y2="1">
      <stop offset="0" stop-color="#E8002D"/><stop offset="1" stop-color="#99001E"/>
    </linearGradient>
  </defs>
  <rect width="512" height="512" fill="url(#b4bg)"/>
  <g transform="rotate(-16 256 300)">
    <rect x="140" y="130" width="200" height="270" rx="20" fill="#7E0018"/>
  </g>
  <g transform="rotate(-2 256 280)">
    <rect x="152" y="118" width="200" height="270" rx="20" fill="#141414"/>
  </g>
  <g transform="rotate(12 268 266)">
    <rect x="168" y="106" width="200" height="270" rx="20" fill="#FFFFFF"/>
    <path d="M168 300 L368 220 L368 264 L168 344 Z" fill="#141414"/>
    <text x="268" y="208" font-family="Arial Black, Arial, sans-serif" font-size="88" font-weight="900" font-style="italic" text-anchor="middle" fill="#E8002D">F1</text>
    <text x="268" y="299" font-family="Arial Black, Arial, sans-serif" font-size="52" font-weight="900" font-style="italic" text-anchor="middle" fill="#FFFFFF" transform="rotate(-21.8 268 282)">UNO</text>
    <g fill="#141414">
      <rect x="192" y="340" width="17" height="17"/><rect x="226" y="340" width="17" height="17"/>
      <rect x="260" y="340" width="17" height="17"/><rect x="294" y="340" width="17" height="17"/>
      <rect x="209" y="357" width="17" height="17"/><rect x="243" y="357" width="17" height="17"/>
      <rect x="277" y="357" width="17" height="17"/><rect x="311" y="357" width="17" height="17"/>
    </g>
  </g>
</svg>
